<?xml version="1.0" encoding="utf-8"?>
<!-- Generator: Adobe Illustrator 26.3.1, SVG Export Plug-In . SVG Version: 6.00 Build 0)  -->
<svg version="1.1" id="Layer_1" xmlns="http://www.w3.org/2000/svg" xmlns:xlink="http://www.w3.org/1999/xlink" x="0px" y="0px"
	 viewBox="0 0 1000 500" style="enable-background:new 0 0 1000 500;" xml:space="preserve">
<style type="text/css">
	.st0{fill:#FFFFFF;}
</style>
<g>
	<path class="st0" d="M180.1,74.1H32c-0.6,0-1.1,0.6-1.2,1.2L29.1,110h1.2c1.4-5.9,2.8-10.7,4.3-14.5c1.9-4.6,4.4-8.3,7.7-10.8
		c3.2-2.4,7.2-3.7,11.7-4.1c4.1-0.4,9.3-0.6,15.4-0.6h19.4c1,0,1.9,0.1,2.8,0.4c1,0.3,1.9,0.8,2.6,1.6c0.8,0.8,1.3,1.8,1.6,2.9
		c0.3,1.2,0.5,2.6,0.5,4.1v155.9c0,0.6,0.5,1.1,1,1.2c6.3-0.1,12.4-0.6,18.4-1.6V92.7V89c0-1.5,0.1-2.9,0.5-4.1
		c0.3-1.1,0.8-2.1,1.6-2.9c0.7-0.7,1.6-1.3,2.6-1.6c0.9-0.2,1.8-0.4,2.8-0.4h19.4c6.2,0,11.3,0.2,15.5,0.6c4.4,0.4,8.4,1.7,11.6,4.1
		c3.3,2.5,5.8,6.1,7.7,10.8c1.6,3.8,3,8.6,4.3,14.5h1.2l-1.7-34.7C181.2,74.7,180.7,74.1,180.1,74.1 M516.6,70.2
		c-0.4,0-2,0.1-4.2,0.3c-2.3,0.2-5.2,0.5-8.7,0.9c-3.4,0.4-7.4,1-12,1.7c-3.5,0.5-7.3,1.2-11.2,1.9l0.1,1.3c1.1-0.1,2.1-0.1,3.2-0.1
		c1.9,0,3.7,0.2,5.5,0.7c1.9,0.6,3.6,1.6,5,3c1.5,1.5,2.5,3.5,3.1,5.7c0.7,2.3,0.9,6.6,0.9,9.7V245c0,0.6,0.5,1.1,1,1.2
		c6.2-0.1,12.4-0.6,18.4-1.6V71.4C517.7,70.7,517.3,70.2,516.6,70.2 M543.3,144.6L614,73.4c-0.5,0-1.1,0-1.7,0
		c-1.5,0.1-3.2,0.1-5,0.2c-1.7,0.1-3.5,0.3-5.2,0.5s-3,0.6-4.2,0.9c-1.8,0.5-3.3,1.6-4.9,3.4l-67.3,75.3l71.4,93.2
		c0.7,0.9,1,1.1,2.5,1.2c0.6,0,1.9-0.1,3.9-0.1c2-0.1,4.2-0.2,6.7-0.3c2.4-0.2,4.9-0.4,7.3-0.6c2.1-0.2,3.9-0.5,5.2-0.7l-79.1-101.6
		L543.3,144.6z M728.7,70.2c-0.4,0-2,0.1-4.2,0.3c-2.3,0.2-5.2,0.5-8.7,0.9s-7.5,1-12,1.7c-3.6,0.5-7.3,1.2-11.2,1.9l0.1,1.3
		c1.1-0.1,2.1-0.1,3.2-0.1c2,0,3.8,0.2,5.5,0.7c1.9,0.6,3.6,1.6,5,3c1.5,1.5,2.5,3.5,3.1,5.7c0.7,2.3,0.9,4.9,1,8V245
		c0,0.6,0.5,1.1,1,1.2c6.3-0.1,12.4-0.6,18.4-1.6V71.4C729.8,70.7,729.3,70.2,728.7,70.2 M326.9,72.2c-49.7,0-76.5,39.4-76.5,88.1
		c0,48.6,26.8,88.1,76.5,88.1s76.4-39.4,76.4-88.1C403.4,111.7,376.6,72.2,326.9,72.2 M329.5,242.9c-35.1,1.4-56.8-34.8-58.2-80.4
		c-1.4-45.6,18-83.4,53.1-84.8s56.8,34.8,58.2,80.4C384,203.8,364.6,241.6,329.5,242.9 M894.4,72.2c-49.7,0-76.4,39.4-76.4,88.1
		c0,48.6,26.8,88.1,76.4,88.1c49.7,0,76.5-39.4,76.5-88.1C970.9,111.7,944.1,72.2,894.4,72.2 M897,242.9
		c-35.1,1.4-56.8-34.8-58.3-80.4c-1.4-45.6,18.1-83.4,53.1-84.8c35.1-1.4,56.8,34.8,58.3,80.4C951.5,203.8,932.1,241.6,897,242.9"/>
	<g>
		<path class="st0" d="M242.7,429.8c0.7-9.3,0.8-16.3,0.8-16.6V362c-13.8,8.7-27.2,15.9-55.1,22.6l-2.2-5.8
			c35.5-8.4,62.6-24.7,88.8-60.3l9.1,5.8c0.3,0.3,1.4,1.1,1.4,1.8c0,0.5-0.4,0.9-1.6,1.2c-1.4,0.5-2,0.9-2.8,1.6
			c-11.8,13-18.8,19.2-28.2,26.4v57.4c0,4.1,0.5,13.7,0.8,17.1L242.7,429.8L242.7,429.8z"/>
		<path class="st0" d="M325.1,417.4c6.7-0.9,16.3-2.2,29.1-6.8c12.1-4.3,23.4-10.4,33.7-18c21.7-16.3,29.7-33.4,33.8-42.1l4.9,3.8
			c-6.7,14.2-23.3,50-75.3,67.8c-3.3,1.2-19,5.4-20.8,6.7L325.1,417.4z M364.1,360.1c-11.7-14.9-20.3-21.1-36.1-26.3l3.8-5.5
			c17.4,5.3,29.5,12.4,41.5,21.7L364.1,360.1z"/>
		<path class="st0" d="M458.3,345.9c7.1,0.8,16.2,1.2,20.3,1.2h20.8c0.3-3.7,0.3-7.8,0.3-11.5c0-3,0-9.2-0.9-17.5l10.3,0.8
			c1.6,0.1,3.5,0.3,3.5,1.3c0,0.4,0,0.8-0.9,2c-1,1.2-1.2,1.7-1.3,2.6c0,6.2-0.1,13.3-0.8,22.2h24.2c4.2,0,17.1-0.5,24.4-1.3
			c-0.7,6.2-0.7,11.1-0.7,11.1c-0.1,12.2-0.4,29.5-4.7,47.4c-4.1,16.7-8.8,22.9-14.2,22.9c-3.3,0-9.7-2.8-24.1-10l2.8-5.4
			c5.3,2.6,13.4,6.6,17.1,6.6c3.9,0,6.2-7.4,7-10.3c5.7-19.2,6.1-36.6,6.2-54.9H509c-2.6,24.6-7.1,39.3-19.2,53.3
			c-11.5,13.3-22.1,17.1-34.7,21.2l-2.4-6.2c10.1-0.8,18.8-7.1,23.3-11.2c19.5-17.9,21.8-43,23.2-57.1h-20.5
			c-5.5,0-15.7,0.7-20.3,1.2v-8.4H458.3z"/>
		<path class="st0" d="M613.8,418.9c7.4-0.3,19.7-0.8,34.6-8.7c10.9-5.8,18.7-15.4,23.3-23.5c6.1-10.8,9.2-25.7,9.2-25.9
			c0-0.8-0.7-0.8-1-0.8h-66.7c-4.9,0-14,0.5-20.4,1.2v-8.4c6.2,0.7,16.2,1.2,20.4,1.2h56.3c1.6,0,12.4-0.7,17.6-1.7l5.9,6.1
			c-0.3,0.5-0.4,0.8-0.7,1.3c-0.8,1.7-4.2,13.4-5.1,15.9c-15.7,44.9-53.8,48-72.4,49.5L613.8,418.9z M607.6,325.4
			c7,0.8,16.8,1.2,20.4,1.2h30.9c4.6,0,14.7-0.5,20.4-1.2v8.4c-7.1-0.8-16.3-1.2-20.4-1.2H628c-4.7,0-14.1,0.5-20.4,1.2V325.4z"/>
		<path class="st0" d="M808.9,425.3c-5.8-4.1-17-11.7-36.9-18.4c-20-6.8-36-8.6-44.5-9.3l1.1-5.7c28,1.8,58.8,9.2,85.3,23.2
			L808.9,425.3z M800.2,345.2c-20.4-7.9-37.6-10.5-64.7-10.7l0.4-5.9c30.1,0.1,45.4,1.6,67.9,6.3L800.2,345.2z M796.3,380.4
			c-24.9-12.8-48.2-15-57.4-15.9l0.8-5.7c17.5,0.9,42.1,5.7,60.1,11.6L796.3,380.4z"/>
	</g>
</g>
</svg>
