<?xml version="1.0" encoding="utf-8"?>
<!-- Generator: Adobe Illustrator 26.3.1, SVG Export Plug-In . SVG Version: 6.00 Build 0)  -->
<svg version="1.1" id="Layer_1" xmlns="http://www.w3.org/2000/svg" xmlns:xlink="http://www.w3.org/1999/xlink" x="0px" y="0px"
	 viewBox="0 0 500 500" style="enable-background:new 0 0 500 500;" xml:space="preserve">
<style type="text/css">
	.st0{fill:#FFFFFF;}
	.st1{fill:#231916;stroke:#FFFFFF;stroke-miterlimit:10;}
</style>
<rect x="-0.7" y="-0.3" class="st0" width="500" height="500"/>
<g>
	<path class="st1" d="M95.8,165.3H24.7c-0.3,0-0.5,0.3-0.6,0.6l-0.8,16.6h0.6c0.7-2.8,1.3-5.1,2.1-6.9c0.9-2.2,2.1-4,3.7-5.2
		c1.6-1.2,3.4-1.8,5.6-2c2-0.2,4.4-0.3,7.4-0.3H52c0.5,0,0.9,0.1,1.3,0.2c0.5,0.1,0.9,0.4,1.2,0.7c0.4,0.4,0.6,0.9,0.8,1.4
		c0.2,0.6,0.2,1.2,0.2,2v74.8c0,0.3,0.2,0.5,0.5,0.6c3,0,5.9-0.3,8.8-0.8v-72.9v-1.8c0-0.7,0.1-1.4,0.2-2c0.2-0.5,0.4-1,0.8-1.4
		c0.3-0.3,0.8-0.6,1.2-0.7c0.4-0.1,0.9-0.2,1.3-0.2h9.3c3,0,5.4,0.1,7.4,0.3c2.1,0.2,4,0.8,5.6,2c1.6,1.2,2.8,2.9,3.7,5.2
		c0.8,1.8,1.4,4.1,2.1,6.9h0.6l-0.8-16.6C96.4,165.6,96.1,165.3,95.8,165.3 M257.3,163.4c-0.2,0-0.9,0.1-2,0.1
		c-1.1,0.1-2.5,0.2-4.2,0.4c-1.7,0.2-3.6,0.5-5.8,0.8c-1.7,0.3-3.5,0.6-5.4,0.9l0.1,0.6c0.5,0,1,0,1.5,0c0.9,0,1.8,0.1,2.6,0.3
		c0.9,0.3,1.7,0.8,2.4,1.4c0.7,0.7,1.2,1.7,1.5,2.7c0.3,1.1,0.4,3.2,0.4,4.7v71.8c0,0.3,0.2,0.5,0.5,0.6c3,0,5.9-0.3,8.8-0.8V164
		C257.8,163.7,257.6,163.4,257.3,163.4 M270.1,199.2l34-34.2c-0.2,0-0.5,0-0.8,0c-0.7,0-1.5,0.1-2.4,0.1c-0.8,0.1-1.7,0.1-2.5,0.2
		c-0.8,0.1-1.5,0.3-2,0.4c-0.9,0.3-1.6,0.7-2.4,1.6l-32.3,36.1l34.2,44.7c0.4,0.4,0.5,0.5,1.2,0.6c0.3,0,0.9,0,1.9,0
		c1,0,2-0.1,3.2-0.1c1.2-0.1,2.3-0.2,3.5-0.3c1-0.1,1.9-0.2,2.5-0.3l-38-48.8L270.1,199.2z M359.1,163.4c-0.2,0-0.9,0.1-2,0.1
		c-1.1,0.1-2.5,0.2-4.2,0.4c-1.7,0.2-3.6,0.5-5.8,0.8c-1.7,0.3-3.5,0.6-5.4,0.9l0.1,0.6c0.5,0,1,0,1.5,0c0.9,0,1.8,0.1,2.6,0.3
		c0.9,0.3,1.7,0.8,2.4,1.4c0.7,0.7,1.2,1.7,1.5,2.7c0.3,1.1,0.4,2.4,0.5,3.8l0,72.7c0,0.3,0.2,0.5,0.5,0.6c3,0,5.9-0.3,8.8-0.8V164
		C359.6,163.7,359.4,163.4,359.1,163.4 M166.3,164.4c-23.8,0-36.7,18.9-36.7,42.3c0,23.3,12.8,42.3,36.7,42.3
		c23.8,0,36.7-18.9,36.7-42.3C203,183.4,190.1,164.4,166.3,164.4 M167.5,246.4c-16.8,0.7-27.3-16.7-28-38.6
		c-0.7-21.9,8.7-40,25.5-40.7c16.8-0.7,27.3,16.7,27.9,38.6C193.7,227.6,184.3,245.7,167.5,246.4 M438.6,164.4
		c-23.8,0-36.7,18.9-36.7,42.3c0,23.3,12.8,42.3,36.7,42.3c23.8,0,36.7-18.9,36.7-42.3C475.3,183.4,462.5,164.4,438.6,164.4
		 M439.8,246.4c-16.8,0.7-27.3-16.7-28-38.6c-0.7-21.9,8.7-40,25.5-40.7c16.8-0.7,27.3,16.7,28,38.6
		C466,227.6,456.7,245.7,439.8,246.4"/>
	<g>
		<path class="st1" d="M125.8,336.1c0.3-4.5,0.4-7.8,0.4-8v-24.6c-6.6,4.2-13.1,7.6-26.5,10.9l-1.1-2.8c17.1-4,30.1-11.9,42.6-28.9
			l4.4,2.8c0.1,0.1,0.7,0.5,0.7,0.9c0,0.3-0.2,0.4-0.8,0.6c-0.7,0.3-0.9,0.4-1.3,0.8c-5.7,6.3-9,9.2-13.5,12.7v27.5
			c0,2,0.3,6.6,0.4,8.2H125.8z"/>
		<path class="st1" d="M165.4,330.1c3.2-0.4,7.8-1.1,14-3.3c5.8-2.1,11.2-5,16.2-8.7c10.4-7.8,14.3-16,16.2-20.2l2.3,1.8
			c-3.2,6.8-11.2,24-36.1,32.5c-1.6,0.6-9.1,2.6-10,3.2L165.4,330.1z M184.1,302.6c-5.6-7.1-9.7-10.1-17.3-12.6l1.8-2.7
			c8.3,2.5,14.1,5.9,19.9,10.4L184.1,302.6z"/>
		<path class="st1" d="M229.3,295.8c3.4,0.4,7.8,0.6,9.7,0.6h10c0.1-1.8,0.1-3.7,0.1-5.5c0-1.4,0-4.4-0.4-8.4l4.9,0.4
			c0.8,0.1,1.7,0.1,1.7,0.6c0,0.2,0,0.4-0.4,0.9c-0.5,0.6-0.6,0.8-0.6,1.3c0,3-0.1,6.4-0.4,10.7h11.6c2,0,8.2-0.3,11.7-0.6
			c-0.3,3-0.3,5.3-0.3,5.3c-0.1,5.9-0.2,14.1-2.3,22.7c-2,8-4.2,11-6.8,11c-1.6,0-4.7-1.3-11.6-4.8l1.3-2.6c2.5,1.3,6.4,3.2,8.2,3.2
			c1.9,0,3-3.5,3.3-4.9c2.7-9.2,2.9-17.6,3-26.3h-18.4c-1.3,11.8-3.4,18.9-9.2,25.6c-5.5,6.4-10.6,8.2-16.7,10.2l-1.1-3
			c4.9-0.4,9-3.4,11.2-5.4c9.3-8.6,10.5-20.6,11.1-27.4h-9.9c-2.7,0-7.5,0.3-9.7,0.6V295.8z"/>
		<path class="st1" d="M303.9,330.8c3.5-0.1,9.5-0.4,16.6-4.2c5.2-2.8,9-7.4,11.2-11.3c2.9-5.2,4.4-12.3,4.4-12.4
			c0-0.4-0.3-0.4-0.5-0.4h-32c-2.3,0-6.7,0.2-9.8,0.6v-4c3,0.3,7.8,0.6,9.8,0.6h27c0.8,0,5.9-0.3,8.5-0.8l2.8,2.9
			c-0.1,0.3-0.2,0.4-0.3,0.6c-0.4,0.8-2,6.4-2.5,7.6c-7.5,21.5-25.8,23-34.7,23.7L303.9,330.8z M301,285.9c3.3,0.4,8.1,0.6,9.8,0.6
			h14.8c2.2,0,7.1-0.3,9.8-0.6v4c-3.4-0.4-7.8-0.6-9.8-0.6h-14.8c-2.3,0-6.8,0.2-9.8,0.6V285.9z"/>
		<path class="st1" d="M397.6,333.9c-2.8-2-8.2-5.6-17.7-8.8c-9.6-3.3-17.3-4.1-21.3-4.5l0.5-2.7c13.5,0.9,28.2,4.4,40.9,11.1
			L397.6,333.9z M393.4,295.4c-9.8-3.8-18.1-5.1-31.1-5.1l0.2-2.8c14.5,0.1,21.8,0.8,32.6,3L393.4,295.4z M391.5,312.3
			c-11.9-6.1-23.1-7.2-27.5-7.6l0.4-2.7c8.4,0.4,20.2,2.7,28.9,5.6L391.5,312.3z"/>
	</g>
</g>
</svg>
